<svg width="0" height="0" class="hidden">
    <symbol version="1.1" xmlns="http://www.w3.org/2000/svg" viewBox="0 0 32 32" id="fb">
      <title>fb</title>
      <path d="M13.040 29.333l-0.040-11.667h-5v-5h5v-3.333c0-4.493 2.787-6.667 6.8-6.667 1.92 0 3.573 0.133 4.053 0.2v4.707h-2.787c-2.173 0-2.6 1.040-2.6 2.56v2.533h6.2l-1.667 5h-4.533v11.667h-5.427z"></path>
    </symbol>
    <symbol version="1.1" xmlns="http://www.w3.org/2000/svg" viewBox="0 0 50 50" id="logo">
      <title>logo</title>
      <path d="M20.459 5.018c-1.356 0.443-2.5 1.232-2.785 1.92l-0.12 0.289-1.88-0.009-0.244-0.509c-0.186-0.388-0.348-0.566-0.684-0.752l-0.439-0.244h-3.174c-4.163 0-4.688 0.21-4.688 1.88v0.47l-0.708 0.351c-2.61 1.293-4.655 3.847-5.463 6.821l-0.225 0.83v10.205c0 11.144-0.033 10.424 0.546 12.001 1.298 3.534 4.307 6.091 7.986 6.79 1.237 0.235 31.6 0.235 32.837 0 3.679-0.698 6.688-3.255 7.986-6.79 0.579-1.577 0.546-0.857 0.546-12.001v-10.205l-0.216-0.781c-1.132-4.087-4.032-6.873-8.133-7.817-0.613-0.141-1.418-0.176-4.948-0.213l-4.215-0.045-0.116-0.28c-0.286-0.69-1.513-1.52-2.865-1.937-1.065-0.329-7.975-0.309-8.998 0.026zM40.030 10.648c2.987 0.307 5.315 2.156 6.325 5.025l0.275 0.781 0.028 9.424c0.032 10.776 0.064 10.273-0.776 12.006-0.946 1.951-2.854 3.427-4.985 3.857-1.141 0.23-30.657 0.23-31.795-0-2.151-0.436-4.052-1.94-5.052-3.998-0.763-1.571-0.741-1.202-0.709-11.865l0.028-9.424 0.304-0.853c0.975-2.732 3.358-4.655 6.13-4.946 1.183-0.124 29.021-0.131 30.227-0.008zM9.547 11.727c-3.132 0.459-5.153 3.042-5.153 6.588v1.313h6.699l0.225-0.464c0.991-2.049 2.987-4.271 5.134-5.718 0.803-0.541 2.92-1.63 3.169-1.63 0.058 0 0.105-0.044 0.105-0.098 0-0.12-9.352-0.113-10.179 0.008zM30.273 11.693c0 0.046 0.165 0.142 0.366 0.213 3.064 1.077 6.798 4.458 8.072 7.308l0.186 0.415h6.709v-1.313c0-3.31-1.51-5.48-4.492-6.459-0.587-0.193-10.84-0.347-10.84-0.163zM24.072 12.364c-11.382 1.111-16.905 13.619-9.958 22.548 7.681 9.871 23.737 4.963 24.744-7.564 0.674-8.389-6.62-15.78-14.786-14.984zM26.66 15.833c6.556 0.941 10.643 8.114 8.148 14.302-2.874 7.129-12.096 8.957-17.38 3.444-7.009-7.313-0.83-19.19 9.232-17.746zM23.874 17.479c-5.899 0.833-9.301 6.857-6.97 12.345 2.676 6.299 11.649 7.080 15.457 1.346 4.167-6.274-1.079-14.736-8.487-13.691zM27.711 18.833c1.139 0.354 1.991 1.181 2.011 1.95 0.046 1.773-3.496 1.717-4.681-0.074-0.901-1.361 0.704-2.488 2.67-1.876zM22.705 32.339c1.079 0.228 2.686 1.215 2.686 1.649 0 1.014-3.627 0.359-4.686-0.846-0.732-0.834 0.159-1.192 2-0.803zM41.879 36.128c-2.015 0.625-1.625 3.428 0.476 3.421 2.137-0.007 2.296-3.154 0.174-3.447-0.215-0.030-0.507-0.018-0.65 0.027z"></path>
    </symbol>
    <symbol version="1.1" xmlns="http://www.w3.org/2000/svg" viewBox="0 0 36 36" id="mute">
      <title>mute</title>
      <path  d="M18.405 2.387c-0.445 0-0.831 0.163-1.156 0.488l-8.556 8.556h-6.732c-0.446 0-0.831 0.163-1.156 0.488s-0.488 0.711-0.488 1.156v9.865c0 0.445 0.163 0.831 0.488 1.156s0.711 0.488 1.156 0.488h6.732l8.556 8.556c0.326 0.325 0.711 0.488 1.156 0.488s0.831-0.163 1.156-0.488 0.488-0.711 0.488-1.156v-27.955c0-0.445-0.163-0.831-0.488-1.156s-0.711-0.488-1.156-0.488z"></path>
      <path  d="M31.902 18.679l3.468-3.468c0.22-0.22 0.33-0.488 0.33-0.802s-0.11-0.582-0.33-0.802l-1.604-1.604c-0.22-0.22-0.488-0.33-0.802-0.33s-0.582 0.11-0.802 0.33l-3.468 3.468-3.468-3.468c-0.22-0.22-0.488-0.33-0.802-0.33s-0.582 0.11-0.802 0.33l-1.604 1.604c-0.22 0.22-0.33 0.488-0.33 0.802s0.11 0.582 0.33 0.802l3.468 3.468-3.468 3.468c-0.22 0.22-0.33 0.488-0.33 0.802s0.11 0.582 0.33 0.802l1.604 1.604c0.22 0.22 0.488 0.33 0.802 0.33s0.582-0.11 0.802-0.33l3.468-3.468 3.468 3.468c0.22 0.22 0.487 0.33 0.802 0.33s0.582-0.11 0.802-0.33l1.604-1.604c0.22-0.22 0.33-0.488 0.33-0.802s-0.11-0.582-0.33-0.802l-3.468-3.468z"></path>
    </symbol>
    <symbol version="1.1" xmlns="http://www.w3.org/2000/svg" viewBox="0 0 36 36" id="pause">
      <title>pause</title>
      <path  d="M15.047 34.594v-33.194c0-0.618-0.498-1.116-1.126-1.116h-6.607c-0.628 0-1.126 0.498-1.126 1.116v33.194c0 0.618 0.498 1.126 1.126 1.126h6.607c0.628 0 1.126-0.498 1.126-1.126z"></path>
      <path  d="M28.687 0.281h-6.607c-0.618 0-1.126 0.498-1.126 1.116v33.194c0 0.618 0.498 1.126 1.126 1.126h6.607c0.618 0 1.126-0.498 1.126-1.126v-33.194c0-0.618-0.498-1.116-1.126-1.116z"></path>
    </symbol>
    <symbol xmlns="http://www.w3.org/2000/svg" viewBox="0 0 23 30" id="play">
      <g clip-path="url(#clip0)">
        <path d="M22.35 14.75L0 0C0 22.23 0 11.32 0 29.49L22.35 14.75Z"></path>
      </g>
      <defs>
        <clipPath id="clip0">
          <rect width="22.35" height="29.49"></rect>
        </clipPath>
      </defs>
    </symbol>
    <symbol version="1.1" xmlns="http://www.w3.org/2000/svg" viewBox="0 0 254 254" id="play-btn">
      <title>play3</title>
      <path d="M112.209 19.848c-0.841 0.203-4.973 0.928-9.181 1.61-79.032 12.819-116.413 109.221-67.485 174.036 15.237 20.184 50.228 43.039 51.961 33.939 0.217-1.137-1.866-2.575-7.036-4.858-21.21-9.368-40.403-27.824-50.875-48.92-38.034-76.618 27.038-163.321 112.012-149.247 12.765 2.115 14.982-2.293 2.472-4.916-5.694-1.194-28.796-2.385-31.868-1.643zM112.719 42.441c-14.943 2.202-34.172 9.853-34.172 13.597 0 2.905 2.158 2.68 10.045-1.047 43.201-20.411 95.797 1.922 111.446 47.322 26.011 75.463-59.858 139.343-125.061 93.034-36.232-25.733-44.587-76.844-18.577-113.647 6.902-9.766 3.27-13.895-3.778-4.294-43.425 59.158 1.913 142.717 75.175 138.546 73.956-4.21 109.316-92.829 58.424-146.419-18.657-19.646-48.755-30.74-73.501-27.094zM201.636 55.764c-1.517 1.517-0.358 4.232 4.498 10.541 36 46.77 24.213 116.679-25.216 149.569-22.273 14.82-41.829 18.928-78.399 16.469-3.444-0.232-4.081 0.032-4.081 1.692 0 7.539 43.772 5.495 65.475-3.059 63.64-25.081 88.732-106.043 50.371-162.531-7.279-10.718-10.94-14.389-12.649-12.68zM93.24 93.953c-1.809 1.998-1.964 4.341-2.241 33.859-0.455 48.527-5.285 47.060 53.309 16.191 28.556-15.045 28.716-14.573-12.24-36.057-32.021-16.797-35.238-17.957-38.828-13.993zM128.627 112.312c31.112 16.25 31.274 16.351 29.098 18.157-2.44 2.026-57.918 30.704-59.395 30.704-1.186 0-1.422-5.333-1.422-32.132 0-22.539 0.333-32.133 1.114-32.133 0.612 0 14.385 6.932 30.606 15.404z"></path>
    </symbol>
    <symbol version="1.1" xmlns="http://www.w3.org/2000/svg" viewBox="0 0 32 32" id="switch-theme">
      <title>image2vector</title>
      <path d="M14.354 0.068c-0.215 0.016-0.618 0.067-0.896 0.113-6.997 1.159-12.257 6.485-13.37 13.538-0.086 0.546-0.108 3.705-0.030 4.334 0.831 6.696 6.065 12.302 12.731 13.636 1.902 0.38 4.307 0.393 6.159 0.032 8.736-1.703 14.326-9.961 12.708-18.772-1.228-6.686-6.785-11.904-13.669-12.837-0.477-0.065-2.967-0.095-3.633-0.045zM17.192 2.037c10.231 0.98 16.042 12.219 10.862 21.010-2.473 4.197-7.148 6.963-11.769 6.965l-0.35 0v-28.024h0.37c0.203 0 0.603 0.022 0.888 0.050z"></path>
    </symbol>
    <symbol version="1.1" xmlns="http://www.w3.org/2000/svg" viewBox="0 0 32 32" id="tw">
      <title>tw</title>
      <path d="M29.333 7.84c-1 0.493-2 0.667-3.173 0.827 1.173-0.667 2-1.667 2.333-3-1.005 0.608-2.176 1.071-3.423 1.322l-0.070 0.012c-1.031-1.014-2.44-1.646-3.996-1.667l-0.004-0c-2.84 0-5.333 2.507-5.333 5.507 0 0.493 0 0.827 0.173 1.16-4.578-0.178-8.619-2.337-11.311-5.639l-0.022-0.028c-0.425 0.726-0.676 1.598-0.676 2.529 0 0.109 0.003 0.218 0.010 0.326l-0.001-0.015c0.034 1.878 1.009 3.521 2.473 4.481l0.021 0.013c-0.84 0-1.667-0.333-2.507-0.667 0 2.667 1.84 4.84 4.333 5.333-0.493 0.173-1 0.173-1.493 0.173-0.333 0-0.667 0-1-0.173 0.667 2.173 2.667 3.84 5.173 3.84-1.8 1.455-4.116 2.335-6.637 2.335-0.071 0-0.142-0.001-0.213-0.002l0.011 0h-1.333c2.365 1.509 5.236 2.429 8.316 2.493l0.017 0c10 0 15.507-8.333 15.507-15.507v-0.667c1.147-0.79 2.093-1.787 2.803-2.944l0.024-0.042z"></path>
    </symbol>
    <symbol version="1.1" xmlns="http://www.w3.org/2000/svg" viewBox="0 0 36 36" id="volume">
      <title>volume</title>
      <path d="M17.995 2.95c-0.429 0-0.801 0.157-1.115 0.471l-8.248 8.248h-6.489c-0.43 0-0.801 0.157-1.115 0.471s-0.471 0.686-0.471 1.115v9.51c0 0.429 0.157 0.801 0.471 1.115s0.686 0.471 1.115 0.471h6.489l8.248 8.248c0.314 0.314 0.685 0.471 1.115 0.471s0.801-0.157 1.115-0.471 0.471-0.685 0.471-1.115v-26.948c0-0.429-0.157-0.801-0.47-1.115s-0.685-0.471-1.115-0.471z"></path>
      <path d="M28.040 21.515c0.702-1.081 1.053-2.249 1.053-3.505s-0.351-2.428-1.053-3.518c-0.702-1.090-1.63-1.858-2.787-2.304-0.165-0.082-0.372-0.124-0.619-0.124-0.429 0-0.801 0.153-1.115 0.458-0.314 0.307-0.471 0.681-0.471 1.127 0 0.347 0.099 0.64 0.298 0.879s0.437 0.446 0.718 0.619c0.28 0.173 0.561 0.363 0.842 0.57s0.52 0.499 0.718 0.879c0.198 0.38 0.297 0.851 0.297 1.412s-0.099 1.032-0.297 1.412c-0.198 0.38-0.437 0.673-0.718 0.879s-0.562 0.397-0.842 0.57c-0.281 0.173-0.52 0.38-0.718 0.619s-0.298 0.533-0.298 0.879c0 0.446 0.158 0.821 0.471 1.127 0.314 0.304 0.685 0.459 1.115 0.459 0.247 0 0.454-0.041 0.619-0.124 1.156-0.463 2.085-1.235 2.787-2.317z"></path>
      <path d="M33.327 25.008c1.404-2.137 2.106-4.471 2.106-6.999 0-2.527-0.702-4.859-2.106-6.999-1.404-2.137-3.262-3.695-5.573-4.669-0.214-0.082-0.429-0.124-0.644-0.124-0.429 0-0.801 0.157-1.115 0.471s-0.47 0.685-0.47 1.115c0 0.644 0.322 1.131 0.966 1.462 0.924 0.479 1.552 0.842 1.882 1.090 1.222 0.892 2.176 2.010 2.861 3.356s1.028 2.778 1.028 4.299c0 1.519-0.343 2.952-1.028 4.299-0.685 1.346-1.639 2.464-2.861 3.356-0.33 0.248-0.958 0.611-1.882 1.090-0.644 0.331-0.966 0.817-0.966 1.462 0 0.429 0.157 0.801 0.47 1.115s0.693 0.471 1.139 0.471c0.198 0 0.405-0.042 0.619-0.124 2.311-0.975 4.17-2.531 5.573-4.67z"></path>
    </symbol>
  </svg>